<svg width="512" height="512" viewBox="0 0 512 512" fill="none" xmlns="http://www.w3.org/2000/svg">
  <defs>
    <linearGradient id="grad-local-chat" x1="0%" y1="0%" x2="100%" y2="100%">
      <stop offset="0%" stop-color="#2563eb" />
      <stop offset="50%" stop-color="#4f46e5" />
      <stop offset="100%" stop-color="#1e1b4b" />
    </linearGradient>
    <linearGradient id="glass-local-chat" x1="0%" y1="0%" x2="0%" y2="100%">
      <stop offset="0%" stop-color="white" stop-opacity="0.3" />
      <stop offset="100%" stop-color="white" stop-opacity="0" />
    </linearGradient>
  </defs>
  <rect x="0" y="0" width="512" height="512" rx="115" ry="115" fill="url(#grad-local-chat)" />
  <path d="M 0 115 A 115 115 0 0 1 115 0 L 397 0 A 115 115 0 0 1 512 115 L 512 230 L 0 230 Z" fill="url(#glass-local-chat)" opacity="0.5" />
  <rect x="0" y="0" width="512" height="512" rx="115" ry="115" fill="none" stroke="white" stroke-opacity="0.2" stroke-width="2" />
  <svg x="128" y="128" width="256" height="256" viewBox="0 0 24 24" fill="none" stroke="white" stroke-width="1.5" stroke-linecap="round" stroke-linejoin="round">
    <path d="M21 15a2 2 0 0 1-2 2H7l-4 4V5a2 2 0 0 1 2-2h14a2 2 0 0 1 2 2z"/>
    <path d="M13 8H7"/>
    <path d="M17 12H7"/>
  </svg>
</svg>
