<svg width="512" height="512" viewBox="0 0 512 512" fill="none" xmlns="http://www.w3.org/2000/svg">
  <defs>
    <linearGradient id="grad-textplay" x1="0%" y1="0%" x2="100%" y2="100%">
      <stop offset="0%" stop-color="#22d3ee" />
      <stop offset="50%" stop-color="#3b82f6" />
      <stop offset="100%" stop-color="#1e3a8a" />
    </linearGradient>
    <linearGradient id="glass-textplay" x1="0%" y1="0%" x2="0%" y2="100%">
      <stop offset="0%" stop-color="white" stop-opacity="0.3" />
      <stop offset="100%" stop-color="white" stop-opacity="0" />
    </linearGradient>
  </defs>
  <rect x="0" y="0" width="512" height="512" rx="115" ry="115" fill="url(#grad-textplay)" />
  <path d="M 0 115 A 115 115 0 0 1 115 0 L 397 0 A 115 115 0 0 1 512 115 L 512 230 L 0 230 Z" fill="url(#glass-textplay)" opacity="0.5" />
  <rect x="0" y="0" width="512" height="512" rx="115" ry="115" fill="none" stroke="white" stroke-opacity="0.2" stroke-width="2" />
  <svg x="128" y="128" width="256" height="256" viewBox="0 0 24 24" fill="none" stroke="white" stroke-width="1.5" stroke-linecap="round" stroke-linejoin="round">
    <line x1="6" x2="6" y1="3" y2="15"/>
    <circle cx="18" cy="6" r="3"/>
    <circle cx="6" cy="18" r="3"/>
    <path d="M18 9a9 9 0 0 1-9 9"/>
  </svg>
</svg>
