<svg width="512" height="512" viewBox="0 0 512 512" fill="none" xmlns="http://www.w3.org/2000/svg">
  <defs>
    <linearGradient id="grad-videoplay" x1="0%" y1="0%" x2="100%" y2="100%">
      <stop offset="0%" stop-color="#ef4444" />
      <stop offset="50%" stop-color="#db2777" />
      <stop offset="100%" stop-color="#581c87" />
    </linearGradient>
    <linearGradient id="glass-videoplay" x1="0%" y1="0%" x2="0%" y2="100%">
      <stop offset="0%" stop-color="white" stop-opacity="0.3" />
      <stop offset="100%" stop-color="white" stop-opacity="0" />
    </linearGradient>
  </defs>
  <rect x="0" y="0" width="512" height="512" rx="115" ry="115" fill="url(#grad-videoplay)" />
  <path d="M 0 115 A 115 115 0 0 1 115 0 L 397 0 A 115 115 0 0 1 512 115 L 512 230 L 0 230 Z" fill="url(#glass-videoplay)" opacity="0.5" />
  <rect x="0" y="0" width="512" height="512" rx="115" ry="115" fill="none" stroke="white" stroke-opacity="0.2" stroke-width="2" />
  <svg x="128" y="128" width="256" height="256" viewBox="0 0 24 24" fill="none" stroke="white" stroke-width="1.5" stroke-linecap="round" stroke-linejoin="round">
    <path d="M20.2 6 3 11l-.9-2.4c-.3-1.1.3-2.2 1.3-2.5l13.5-4c1.1-.3 2.2.3 2.5 1.3Z"/>
    <path d="m6.2 5.3 3.1 3.9"/>
    <path d="m12.4 3.4 3.1 4"/>
    <path d="M3 11h18v8a2 2 0 0 1-2 2H5a2 2 0 0 1-2-2Z"/>
  </svg>
</svg>
