<svg width="512" height="512" viewBox="0 0 512 512" fill="none" xmlns="http://www.w3.org/2000/svg">
  <defs>
    <linearGradient id="grad-world-studio" x1="0%" y1="0%" x2="100%" y2="100%">
      <stop offset="0%" stop-color="#fbbf24" />
      <stop offset="50%" stop-color="#f97316" />
      <stop offset="100%" stop-color="#9a3412" />
    </linearGradient>
    <linearGradient id="glass-world-studio" x1="0%" y1="0%" x2="0%" y2="100%">
      <stop offset="0%" stop-color="white" stop-opacity="0.3" />
      <stop offset="100%" stop-color="white" stop-opacity="0" />
    </linearGradient>
  </defs>
  <rect x="0" y="0" width="512" height="512" rx="115" ry="115" fill="url(#grad-world-studio)" />
  <path d="M 0 115 A 115 115 0 0 1 115 0 L 397 0 A 115 115 0 0 1 512 115 L 512 230 L 0 230 Z" fill="url(#glass-world-studio)" opacity="0.5" />
  <rect x="0" y="0" width="512" height="512" rx="115" ry="115" fill="none" stroke="white" stroke-opacity="0.2" stroke-width="2" />
  <svg x="128" y="128" width="256" height="256" viewBox="0 0 24 24" fill="none" stroke="white" stroke-width="1.5" stroke-linecap="round" stroke-linejoin="round">
    <circle cx="12" cy="12" r="10"/>
    <path d="M12 2a14.5 14.5 0 0 0 0 20 14.5 14.5 0 0 0 0-20"/>
    <path d="M2 12h20"/>
  </svg>
</svg>
