<svg width="512" height="512" viewBox="0 0 512 512" fill="none" xmlns="http://www.w3.org/2000/svg">
  <defs>
    <linearGradient id="grad-mint-you" x1="0%" y1="0%" x2="100%" y2="100%">
      <stop offset="0%" stop-color="#d946ef" />
      <stop offset="50%" stop-color="#9333ea" />
      <stop offset="100%" stop-color="#312e81" />
    </linearGradient>
    <linearGradient id="glass-mint-you" x1="0%" y1="0%" x2="0%" y2="100%">
      <stop offset="0%" stop-color="white" stop-opacity="0.3" />
      <stop offset="100%" stop-color="white" stop-opacity="0" />
    </linearGradient>
  </defs>
  <rect x="0" y="0" width="512" height="512" rx="115" ry="115" fill="url(#grad-mint-you)" />
  <path d="M 0 115 A 115 115 0 0 1 115 0 L 397 0 A 115 115 0 0 1 512 115 L 512 230 L 0 230 Z" fill="url(#glass-mint-you)" opacity="0.5" />
  <rect x="0" y="0" width="512" height="512" rx="115" ry="115" fill="none" stroke="white" stroke-opacity="0.2" stroke-width="2" />
  <svg x="128" y="128" width="256" height="256" viewBox="0 0 24 24" fill="none" stroke="white" stroke-width="1.5" stroke-linecap="round" stroke-linejoin="round">
    <path d="M12 10a2 2 0 0 0-2 2c0 1.02-.1 2.51-.26 4"/>
    <path d="M14 13.12c0 2.38 0 6.38-1 8.88"/>
    <path d="M17.29 21.02c.12-.6.43-2.3.5-3.02"/>
    <path d="M2 12a10 10 0 0 1 18-6"/>
    <path d="M2 16h.01"/>
    <path d="M21.8 16c.2-2 .131-5.354 0-6"/>
    <path d="M5 19.5C5.5 18 6 15 6 12a6 6 0 0 1 .34-2"/>
    <path d="M8.65 22c.21-.66.45-1.32.57-2"/>
    <path d="M9 6.8a6 6 0 0 1 9 5.2v2"/>
  </svg>
</svg>
