<svg xmlns="http://www.w3.org/2000/svg" viewBox="0 0 24 24" fill="none" stroke="currentColor" stroke-width="1.5" stroke-linecap="round" stroke-linejoin="round">
  <!-- Staff lines -->
  <line x1="3" y1="6" x2="21" y2="6" opacity="0.3"/>
  <line x1="3" y1="9" x2="21" y2="9" opacity="0.3"/>
  <line x1="3" y1="12" x2="21" y2="12" opacity="0.3"/>
  <line x1="3" y1="15" x2="21" y2="15" opacity="0.3"/>
  <line x1="3" y1="18" x2="21" y2="18" opacity="0.3"/>
  <!-- Treble clef simplified -->
  <path d="M8 18c0-2 1.5-3 3-3s2 1.5 1 3c-1 1.5-3 1-3 0"/>
  <path d="M11 15V5c0-1 1-2 2-1.5"/>
  <!-- Notes -->
  <ellipse cx="16" cy="12" rx="1.5" ry="1.2" fill="currentColor"/>
  <line x1="17.5" y1="12" x2="17.5" y2="6"/>
  <ellipse cx="19" cy="9" rx="1.5" ry="1.2" fill="currentColor"/>
  <line x1="20.5" y1="9" x2="20.5" y2="3"/>
</svg>
